<?xml version="1.0" standalone="no"?>
<!DOCTYPE svg PUBLIC "-//W3C//DTD SVG 20000303 Stylable//EN" "http://www.w3.org/TR/2000/03/WD-SVG-20000303/DTD/svg-20000303-stylable.dtd">
<svg width="14cm" height="22cm" viewBox="-1 0 13 23">
  <polygon style="fill: #ffffff" points="6.05,4 9.05,4 6.1,0.95 "/>
  <polygon style="stroke-width: 0.1; stroke: #000000" points="6.05,4 9.05,4 6.1,0.95 "/>
  <polygon style="fill: #ffffff" points="2.1,3.95 5.05,4 0.2,0.95 "/>
  <polygon style="stroke-width: 0.1; stroke: #000000" points="2.1,3.95 5.05,4 0.2,0.95 "/>
  <polygon style="fill: #ffffff" points="9.95,4 12.8,4 11.65,0.8 "/>
  <polygon style="stroke-width: 0.1; stroke: #000000" points="9.95,4 12.8,4 11.65,0.8 "/>
  <polygon style="fill: #ffffff" points="7.95,10 9.95,18 3,17.95 "/>
  <polygon style="stroke-width: 0.1; stroke: #000000" points="7.95,10 9.95,18 3,17.95 "/>
  <line style="stroke-width: 0.1; stroke: #000000" x1="6.35" y1="12.55" x2="10.95" y2="5.15"/>
  <path style="stroke-width: 0.1; stroke: #000000" d="M 6.00163,9.15832 A 2.01983,2.01983 0 0 1 6.04065,10.944"/>
  <polyline style="stroke-width: 0.1; stroke: #000000" points="8.64576,11.7217 8.4,11.95 8.73006,12.0096 "/>
  <path style="stroke-width: 0.1; stroke: #000000" d="M 7.69346,6.95339 A 3.03354,3.03354 0 1 1 4.83486,9.16742"/>
  <polyline style="stroke-width: 0.1; stroke: #000000" points="6.73541,12.6999 6.4,12.7 6.60133,12.9683 "/>
  <text style="fill: #000000; text-align: center; font-size: 0.8" x="11.05" y="10.2"/>
  <text style="fill: #000000; text-align: center; font-size: 1.6" x="10.7" y="9.5">R</text>
  <text style="fill: #000000; text-align: center; font-size: 1.6" x="7.25" y="14.45">r</text>
  <line style="stroke-width: 0.1; stroke: #000000" x1="9.15" y1="14.9" x2="11.05" y2="22.3"/>
  <path style="stroke-width: 0.1; stroke: #000000" d="M 11.2429,16.4201 A 2.0653,2.0653 0 1 1 11.8538,18.7128"/>
  <polyline style="stroke-width: 0.1; stroke: #000000" points="8.00698,18.3464 7.85,18.05 7.70706,18.3534 "/>
  <path style="stroke-width: 0.1; stroke: #000000" d="M 9.75746,19.9963 A 2.09102,2.09102 0 1 1 12.4671,18.7073"/>
  <polyline style="stroke-width: 0.1; stroke: #000000" points="9.22163,16.534 9.4,16.25 9.06574,16.2777 "/>
  <line style="stroke-width: 0.1; stroke: #000000" x1="5.05" y1="17.95" x2="0.15" y2="17.95"/>
  <path style="stroke-width: 0.1; stroke: #000000" d="M 4.52336,14.9792 A 3.1408,3.1408 0 1 1 2.79761,21.0169"/>
  <polyline style="stroke-width: 0.1; stroke: #000000" points="4.27036,15.062 4.6,15 4.35265,14.7735 "/>
  <path style="stroke-width: 0.1; stroke: #000000" d="M 4.76208,17.3671 A 1.25312,1.25312 0 0 1 3.41495,18.8804"/>
  <polyline style="stroke-width: 0.1; stroke: #000000" points="4.68069,17.6218 4.75,17.95 4.97095,17.6976 "/>
  <text style="fill: #000000; text-align: center; font-size: 1.8" x="7.2" y="20.9">P</text>
  <text style="fill: #000000; text-align: center; font-size: 1" x="8.05" y="16.8">p</text>
  <text style="fill: #000000; text-align: center; font-size: 1.8" x="1.6" y="15.35">Q</text>
  <text style="fill: #000000; text-align: center; font-size: 1.1" x="5.35" y="16.75">q</text>
</svg>
